# xmcd
#
# Track frame offsets: 
#        182
#        69932
#        154622
#        234390
#
# Disc length: 3574 seconds
#
# Revision: 9
# Processed by: cddbd v1.5.2PL0 Copyright (c) Steve Scherf et al.
# Submitted via: ExactAudioCopyFreeDBPlugin 1.0
#
DISCID=240df404
DTITLE=Rachmaninoff - Trios élégiaques N°1 and 2 (Borodin Trio - L.Edlina
DTITLE=, piano - R.Dubinsky, violin - Y.Turovsky, cello)
DYEAR=2008
DGENRE=Classique
TTITLE0=Trio élégiaque N°1 in G minor, Op. posth. - Lento lugubre
TTITLE1=Trio élégiaque N°2 in D minor, Op.9 - I. Moderato - Allegro mo
TTITLE1=derato
TTITLE2=Trio élégiaque N°2 in D minor, Op.9 - II. Quasi variazione
TTITLE3=Trio élégiaque N°2 in D minor, Op.9 - III. Allegro risoluto
EXTD=The Borodin Trio YEAR: 2008
EXTT0=
EXTT1=
EXTT2=
EXTT3=
PLAYORDER=
